<mxfile modified="2021-08-13T19:40:26.512Z" host="app.diagrams.net" agent="5.0 (Macintosh)" etag="wpgFV0Avht3YooiFtBZP" version="14.9.6" type="github">
  <diagram id="Ht1M8jgEwFfnCIfOTk4-" name="Page-1">
    <mxGraphModel dx="1300" dy="1616" grid="1" gridSize="10" guides="1" tooltips="1" connect="1" arrows="1" fold="1" page="1" pageScale="1" pageWidth="1169" pageHeight="827" math="0" shadow="0">
      <root>
        <mxCell id="0" />
        <mxCell id="1" parent="0" />
        <mxCell id="sa49QsE0EUEzj36IuMwf-6" value="ETL" style="fillColor=none;strokeColor=#5A6C86;dashed=1;verticalAlign=top;fontStyle=0;fontColor=#5A6C86;" vertex="1" parent="1">
          <mxGeometry x="654" y="-795" width="276" height="305" as="geometry" />
        </mxCell>
        <mxCell id="UEzPUAAOIrF-is8g5C7q-177" value="Amazon S3&lt;br&gt;Bucket&lt;br&gt;" style="outlineConnect=0;fontColor=#232F3E;gradientColor=none;fillColor=#277116;strokeColor=none;dashed=0;verticalLabelPosition=bottom;verticalAlign=top;align=center;html=1;fontSize=12;fontStyle=0;aspect=fixed;pointerEvents=1;shape=mxgraph.aws4.bucket;labelBackgroundColor=#ffffff;" parent="1" vertex="1">
          <mxGeometry x="490" y="-750.75" width="75" height="78" as="geometry" />
        </mxCell>
        <mxCell id="W5TTyE3rxZX66SbKd2Jt-23" value="" style="edgeStyle=orthogonalEdgeStyle;curved=1;orthogonalLoop=1;jettySize=auto;html=1;strokeColor=#330000;" parent="1" source="W5TTyE3rxZX66SbKd2Jt-6" target="UEzPUAAOIrF-is8g5C7q-177" edge="1">
          <mxGeometry relative="1" as="geometry" />
        </mxCell>
        <mxCell id="W5TTyE3rxZX66SbKd2Jt-6" value="AWS Lambda" style="points=[[0,0,0],[0.25,0,0],[0.5,0,0],[0.75,0,0],[1,0,0],[0,1,0],[0.25,1,0],[0.5,1,0],[0.75,1,0],[1,1,0],[0,0.25,0],[0,0.5,0],[0,0.75,0],[1,0.25,0],[1,0.5,0],[1,0.75,0]];outlineConnect=0;fontColor=#232F3E;gradientColor=#F78E04;gradientDirection=north;fillColor=#D05C17;strokeColor=#ffffff;dashed=0;verticalLabelPosition=bottom;verticalAlign=top;align=center;html=1;fontSize=12;fontStyle=0;aspect=fixed;shape=mxgraph.aws4.resourceIcon;resIcon=mxgraph.aws4.lambda;" parent="1" vertex="1">
          <mxGeometry x="268" y="-750.75" width="78" height="78" as="geometry" />
        </mxCell>
        <mxCell id="sa49QsE0EUEzj36IuMwf-9" value="" style="edgeStyle=orthogonalEdgeStyle;rounded=0;orthogonalLoop=1;jettySize=auto;html=1;" edge="1" parent="1" source="W5TTyE3rxZX66SbKd2Jt-7" target="sa49QsE0EUEzj36IuMwf-1">
          <mxGeometry relative="1" as="geometry" />
        </mxCell>
        <mxCell id="W5TTyE3rxZX66SbKd2Jt-7" value="Glue" style="points=[[0,0,0],[0.25,0,0],[0.5,0,0],[0.75,0,0],[1,0,0],[0,1,0],[0.25,1,0],[0.5,1,0],[0.75,1,0],[1,1,0],[0,0.25,0],[0,0.5,0],[0,0.75,0],[1,0.25,0],[1,0.5,0],[1,0.75,0]];outlineConnect=0;fontColor=#232F3E;gradientColor=#945DF2;gradientDirection=north;fillColor=#5A30B5;strokeColor=#ffffff;dashed=0;verticalLabelPosition=bottom;verticalAlign=top;align=center;html=1;fontSize=12;fontStyle=0;aspect=fixed;shape=mxgraph.aws4.resourceIcon;resIcon=mxgraph.aws4.glue;" parent="1" vertex="1">
          <mxGeometry x="830" y="-624.75" width="78" height="78" as="geometry" />
        </mxCell>
        <mxCell id="W5TTyE3rxZX66SbKd2Jt-8" value="QuickSight" style="points=[[0,0,0],[0.25,0,0],[0.5,0,0],[0.75,0,0],[1,0,0],[0,1,0],[0.25,1,0],[0.5,1,0],[0.75,1,0],[1,1,0],[0,0.25,0],[0,0.5,0],[0,0.75,0],[1,0.25,0],[1,0.5,0],[1,0.75,0]];outlineConnect=0;fontColor=#232F3E;gradientColor=#945DF2;gradientDirection=north;fillColor=#5A30B5;strokeColor=#ffffff;dashed=0;verticalLabelPosition=bottom;verticalAlign=top;align=center;html=1;fontSize=12;fontStyle=0;aspect=fixed;shape=mxgraph.aws4.resourceIcon;resIcon=mxgraph.aws4.quicksight;" parent="1" vertex="1">
          <mxGeometry x="530" y="-330" width="78" height="78" as="geometry" />
        </mxCell>
        <mxCell id="W5TTyE3rxZX66SbKd2Jt-30" value="" style="edgeStyle=orthogonalEdgeStyle;curved=1;orthogonalLoop=1;jettySize=auto;html=1;strokeColor=#330000;" parent="1" source="W5TTyE3rxZX66SbKd2Jt-10" target="W5TTyE3rxZX66SbKd2Jt-8" edge="1">
          <mxGeometry relative="1" as="geometry" />
        </mxCell>
        <mxCell id="W5TTyE3rxZX66SbKd2Jt-10" value="Athena" style="points=[[0,0,0],[0.25,0,0],[0.5,0,0],[0.75,0,0],[1,0,0],[0,1,0],[0.25,1,0],[0.5,1,0],[0.75,1,0],[1,1,0],[0,0.25,0],[0,0.5,0],[0,0.75,0],[1,0.25,0],[1,0.5,0],[1,0.75,0]];outlineConnect=0;fontColor=#232F3E;gradientColor=#945DF2;gradientDirection=north;fillColor=#5A30B5;strokeColor=#ffffff;dashed=0;verticalLabelPosition=bottom;verticalAlign=top;align=center;html=1;fontSize=12;fontStyle=0;aspect=fixed;shape=mxgraph.aws4.resourceIcon;resIcon=mxgraph.aws4.athena;" parent="1" vertex="1">
          <mxGeometry x="750.75" y="-330" width="78" height="78" as="geometry" />
        </mxCell>
        <mxCell id="sa49QsE0EUEzj36IuMwf-17" value="" style="edgeStyle=orthogonalEdgeStyle;rounded=0;orthogonalLoop=1;jettySize=auto;html=1;" edge="1" parent="1" source="W5TTyE3rxZX66SbKd2Jt-12" target="W5TTyE3rxZX66SbKd2Jt-7">
          <mxGeometry relative="1" as="geometry" />
        </mxCell>
        <mxCell id="sa49QsE0EUEzj36IuMwf-20" value="" style="edgeStyle=orthogonalEdgeStyle;rounded=0;orthogonalLoop=1;jettySize=auto;html=1;" edge="1" parent="1" source="W5TTyE3rxZX66SbKd2Jt-12" target="W5TTyE3rxZX66SbKd2Jt-8">
          <mxGeometry relative="1" as="geometry" />
        </mxCell>
        <mxCell id="sa49QsE0EUEzj36IuMwf-21" value="" style="edgeStyle=orthogonalEdgeStyle;rounded=0;orthogonalLoop=1;jettySize=auto;html=1;" edge="1" parent="1" source="W5TTyE3rxZX66SbKd2Jt-12" target="W5TTyE3rxZX66SbKd2Jt-10">
          <mxGeometry relative="1" as="geometry" />
        </mxCell>
        <mxCell id="W5TTyE3rxZX66SbKd2Jt-12" value="Glue Data Catalog" style="outlineConnect=0;fontColor=#232F3E;gradientColor=none;fillColor=#5A30B5;strokeColor=none;dashed=0;verticalLabelPosition=bottom;verticalAlign=top;align=center;html=1;fontSize=12;fontStyle=0;aspect=fixed;pointerEvents=1;shape=mxgraph.aws4.glue_data_catalog;labelPosition=center;" parent="1" vertex="1">
          <mxGeometry x="688.44" y="-619.5" width="62.31" height="67.5" as="geometry" />
        </mxCell>
        <mxCell id="W5TTyE3rxZX66SbKd2Jt-13" value="Data Sources" style="fillColor=none;strokeColor=#5A6C86;dashed=1;verticalAlign=top;fontStyle=0;fontColor=#5A6C86;" parent="1" vertex="1">
          <mxGeometry x="54" y="-774.25" width="130" height="264.25" as="geometry" />
        </mxCell>
        <mxCell id="W5TTyE3rxZX66SbKd2Jt-14" value="CDC Database" style="outlineConnect=0;fontColor=#232F3E;gradientColor=none;fillColor=#232F3E;strokeColor=none;dashed=0;verticalLabelPosition=bottom;verticalAlign=top;align=center;html=1;fontSize=12;fontStyle=0;aspect=fixed;pointerEvents=1;shape=mxgraph.aws4.generic_database;" parent="1" vertex="1">
          <mxGeometry x="89.5" y="-730" width="59" height="78" as="geometry" />
        </mxCell>
        <mxCell id="sa49QsE0EUEzj36IuMwf-14" value="" style="edgeStyle=orthogonalEdgeStyle;rounded=0;orthogonalLoop=1;jettySize=auto;html=1;" edge="1" parent="1" source="W5TTyE3rxZX66SbKd2Jt-15" target="W5TTyE3rxZX66SbKd2Jt-6">
          <mxGeometry relative="1" as="geometry" />
        </mxCell>
        <mxCell id="W5TTyE3rxZX66SbKd2Jt-15" value="NYTimes Repository" style="outlineConnect=0;fontColor=#232F3E;gradientColor=none;fillColor=#232F3E;strokeColor=none;dashed=0;verticalLabelPosition=bottom;verticalAlign=top;align=center;html=1;fontSize=12;fontStyle=0;aspect=fixed;pointerEvents=1;shape=mxgraph.aws4.internet;" parent="1" vertex="1">
          <mxGeometry x="80" y="-600" width="78" height="48" as="geometry" />
        </mxCell>
        <mxCell id="W5TTyE3rxZX66SbKd2Jt-18" value="" style="edgeStyle=orthogonalEdgeStyle;html=1;endArrow=block;elbow=vertical;startArrow=none;endFill=1;strokeColor=#545B64;rounded=0;entryX=0;entryY=0.5;entryDx=0;entryDy=0;entryPerimeter=0;" parent="1" source="W5TTyE3rxZX66SbKd2Jt-14" target="W5TTyE3rxZX66SbKd2Jt-6" edge="1">
          <mxGeometry width="100" relative="1" as="geometry">
            <mxPoint x="490" y="-550" as="sourcePoint" />
            <mxPoint x="360" y="-691" as="targetPoint" />
          </mxGeometry>
        </mxCell>
        <mxCell id="W5TTyE3rxZX66SbKd2Jt-31" value="AWS Lambda" style="points=[[0,0,0],[0.25,0,0],[0.5,0,0],[0.75,0,0],[1,0,0],[0,1,0],[0.25,1,0],[0.5,1,0],[0.75,1,0],[1,1,0],[0,0.25,0],[0,0.5,0],[0,0.75,0],[1,0.25,0],[1,0.5,0],[1,0.75,0]];outlineConnect=0;fontColor=#232F3E;gradientColor=#F78E04;gradientDirection=north;fillColor=#D05C17;strokeColor=#ffffff;dashed=0;verticalLabelPosition=bottom;verticalAlign=top;align=center;html=1;fontSize=12;fontStyle=0;aspect=fixed;shape=mxgraph.aws4.resourceIcon;resIcon=mxgraph.aws4.lambda;" parent="1" vertex="1">
          <mxGeometry x="1110" y="-340" width="78" height="78" as="geometry" />
        </mxCell>
        <mxCell id="W5TTyE3rxZX66SbKd2Jt-32" value="" style="points=[[0,0,0],[0.25,0,0],[0.5,0,0],[0.75,0,0],[1,0,0],[0,1,0],[0.25,1,0],[0.5,1,0],[0.75,1,0],[1,1,0],[0,0.25,0],[0,0.5,0],[0,0.75,0],[1,0.25,0],[1,0.5,0],[1,0.75,0]];outlineConnect=0;fontColor=#232F3E;gradientColor=#F34482;gradientDirection=north;fillColor=#BC1356;strokeColor=#ffffff;dashed=0;verticalLabelPosition=bottom;verticalAlign=top;align=center;html=1;fontSize=12;fontStyle=0;aspect=fixed;shape=mxgraph.aws4.resourceIcon;resIcon=mxgraph.aws4.step_functions;" parent="1" vertex="1">
          <mxGeometry x="80" y="-492" width="78" height="78" as="geometry" />
        </mxCell>
        <mxCell id="W5TTyE3rxZX66SbKd2Jt-33" value="" style="points=[[0,0,0],[0.25,0,0],[0.5,0,0],[0.75,0,0],[1,0,0],[0,1,0],[0.25,1,0],[0.5,1,0],[0.75,1,0],[1,1,0],[0,0.25,0],[0,0.5,0],[0,0.75,0],[1,0.25,0],[1,0.5,0],[1,0.75,0]];outlineConnect=0;fontColor=#232F3E;gradientColor=#F34482;gradientDirection=north;fillColor=#BC1356;strokeColor=#ffffff;dashed=0;verticalLabelPosition=bottom;verticalAlign=top;align=center;html=1;fontSize=12;fontStyle=0;aspect=fixed;shape=mxgraph.aws4.resourceIcon;resIcon=mxgraph.aws4.sns;" parent="1" vertex="1">
          <mxGeometry x="190" y="-490" width="78" height="78" as="geometry" />
        </mxCell>
        <mxCell id="sa49QsE0EUEzj36IuMwf-1" value="Amazon S3&lt;br&gt;Bucket&lt;br&gt;" style="outlineConnect=0;fontColor=#232F3E;gradientColor=none;fillColor=#277116;strokeColor=none;dashed=0;verticalLabelPosition=bottom;verticalAlign=top;align=center;html=1;fontSize=12;fontStyle=0;aspect=fixed;pointerEvents=1;shape=mxgraph.aws4.bucket;labelBackgroundColor=#ffffff;" vertex="1" parent="1">
          <mxGeometry x="1080" y="-752.75" width="76.92" height="80" as="geometry" />
        </mxCell>
        <mxCell id="sa49QsE0EUEzj36IuMwf-16" value="" style="edgeStyle=orthogonalEdgeStyle;rounded=0;orthogonalLoop=1;jettySize=auto;html=1;" edge="1" parent="1" source="sa49QsE0EUEzj36IuMwf-2" target="W5TTyE3rxZX66SbKd2Jt-12">
          <mxGeometry relative="1" as="geometry" />
        </mxCell>
        <mxCell id="sa49QsE0EUEzj36IuMwf-2" value="Crawler" style="outlineConnect=0;fontColor=#232F3E;gradientColor=none;fillColor=#5A30B5;strokeColor=none;dashed=0;verticalLabelPosition=top;verticalAlign=bottom;align=center;html=1;fontSize=12;fontStyle=0;aspect=fixed;pointerEvents=1;shape=mxgraph.aws4.glue_crawlers;labelPosition=center;" vertex="1" parent="1">
          <mxGeometry x="686.85" y="-745.5" width="65.5" height="65.5" as="geometry" />
        </mxCell>
        <mxCell id="sa49QsE0EUEzj36IuMwf-19" style="edgeStyle=orthogonalEdgeStyle;rounded=0;orthogonalLoop=1;jettySize=auto;html=1;exitX=0.5;exitY=1;exitDx=0;exitDy=0;" edge="1" parent="1" source="sa49QsE0EUEzj36IuMwf-6" target="sa49QsE0EUEzj36IuMwf-6">
          <mxGeometry relative="1" as="geometry" />
        </mxCell>
        <mxCell id="sa49QsE0EUEzj36IuMwf-22" value="1." style="text;html=1;align=center;verticalAlign=middle;resizable=0;points=[];autosize=1;strokeColor=none;" vertex="1" parent="1">
          <mxGeometry x="205" y="-740" width="30" height="20" as="geometry" />
        </mxCell>
        <mxCell id="sa49QsE0EUEzj36IuMwf-23" value="1." style="text;html=1;align=center;verticalAlign=middle;resizable=0;points=[];autosize=1;strokeColor=none;" vertex="1" parent="1">
          <mxGeometry x="200" y="-600" width="30" height="20" as="geometry" />
        </mxCell>
        <mxCell id="sa49QsE0EUEzj36IuMwf-24" value="2." style="text;html=1;align=center;verticalAlign=middle;resizable=0;points=[];autosize=1;strokeColor=none;" vertex="1" parent="1">
          <mxGeometry x="400" y="-740" width="30" height="20" as="geometry" />
        </mxCell>
        <mxCell id="sa49QsE0EUEzj36IuMwf-25" value="3. One time crawl" style="text;html=1;align=center;verticalAlign=middle;resizable=0;points=[];autosize=1;strokeColor=none;" vertex="1" parent="1">
          <mxGeometry x="560" y="-752.75" width="110" height="20" as="geometry" />
        </mxCell>
      </root>
    </mxGraphModel>
  </diagram>
</mxfile>
